<svg height="512" viewBox="0 0 512 512" width="512" xmlns="http://www.w3.org/2000/svg"><g id="Dairy_Product" data-name="Dairy Product"><g id="Filled"><path d="m8 136h144v368h-144z" fill="#e2dbd5"/><path d="m152 136h-144l48-80h144z" fill="#efebe8"/><path d="m248.333 504h-96.333v-368l48.167-80 48.166 80z" fill="#d4ccc7"/><path d="m200.167 504h-48.167v-368l48.167-80z" fill="#c6bab3"/><path d="m8 216h144v208h-144z" fill="#ea6049"/><path d="m312 8h96v64h-96z" fill="#ffead2"/><path d="m280 344v-144l1.61-16a80.072 80.072 0 0 1 30.39-48s16-16-7.8-35.9c-10.356-8.659-10.761-28.15 6.63-28.1h98.34c16.749-.086 17.388 19.105 6.63 28.1-23.8 19.9-7.8 35.9-7.8 35.9a80.016 80.016 0 0 1 32 64v144z" fill="#f09b73"/><path d="m280 286.625v57.375h160v-144a79.94 79.94 0 0 0 -2.247-18.813 208.07 208.07 0 0 1 -157.753 105.438z" fill="#e58b6c"/><path d="m56 8h144v48h-144z" fill="#d4ccc7"/><path d="m366.46 295.113c-30.708 8.3-40.595-32.809-17.168-44.591l-13.292-34.522h-56v288c48 0 118.328-5.923 152-38.662z" fill="#eed60f"/><path d="m280 216-27.861 72.363c35.56 5.848 14.342 63.911-16.92 43.947l-25.85 67.138c13.357 13.759 4.361 39.276-15.585 40.479l-9.784 25.411c53.019 51.549 138.981 51.549 192 0z" fill="#f8e868"/><path d="m188.937 469.9c53.291 46.938 135.663 45.417 187.063-4.562l-38.748-100.638a200.158 200.158 0 0 1 -148.315 105.2z" fill="#f6e23d"/><circle cx="312" cy="432" fill="#f8e868" r="16"/><circle cx="288" cy="376" fill="#f6e23d" r="16"/><circle cx="248" cy="456" fill="#f6e23d" r="16"/><g fill="#eed60f"><path d="m320 432a15.912 15.912 0 0 1 7.852 2.068 16.221 16.221 0 0 0 .148-2.068 16 16 0 1 0 -23.852 13.932 15.993 15.993 0 0 1 15.852-13.932z"/><path d="m296 376a15.912 15.912 0 0 1 7.852 2.068 16.221 16.221 0 0 0 .148-2.068 16 16 0 1 0 -23.852 13.932 15.993 15.993 0 0 1 15.852-13.932z"/><path d="m256 456a15.912 15.912 0 0 1 7.852 2.068 16.221 16.221 0 0 0 .148-2.068 16 16 0 1 0 -23.852 13.932 15.993 15.993 0 0 1 15.852-13.932z"/></g><path d="m408 72v-64h-24.374a87.91 87.91 0 0 1 -37.038 64z" fill="#faddc3"/><circle cx="280" cy="280" fill="#fcf5be" r="16"/><circle cx="296" cy="312" fill="#fcf5be" r="8"/><circle cx="356" cy="148" fill="#f2bba5" r="20"/><circle cx="388" cy="180" fill="#f2bba5" r="12"/><circle cx="64" cy="96" fill="#fff" r="16"/><circle cx="88" cy="120" fill="#fff" r="8"/><path d="m8 370.615v53.385h144v-165.015a216.351 216.351 0 0 1 -144 111.63z" fill="#de513e"/><path d="m344 328 16 176h112l16-176z" fill="#81c784"/><circle cx="376" cy="368" fill="#c8e6c9" r="16"/><circle cx="400" cy="392" fill="#c8e6c9" r="8"/><path d="m360 504h112l10.907-119.974a171.867 171.867 0 0 1 -126.946 75.545z" fill="#66bb6a"/><path d="m120 336a40 40 0 0 1 -80 0c0-22.091 40-72 40-72s40 49.909 40 72z" fill="#fff"/><path d="m117.754 324.975c-14.253 23.493-42.165 37.652-70.13 34.5a39.995 39.995 0 0 0 72.376-23.475 35.058 35.058 0 0 0 -2.246-11.025z" fill="#efebe8"/></g><g id="Outline"><path d="m312 424a8 8 0 0 0 8-8c0-15.305-32-7.787-32 16 0 23.759 32 31.355 32 16a8 8 0 0 0 -8-8 8 8 0 0 1 0-16z"/><path d="m312 376a24 24 0 1 0 -24 24 24.027 24.027 0 0 0 24-24zm-32 0a8 8 0 1 1 8 8 8.009 8.009 0 0 1 -8-8z"/><path d="m248 432a24 24 0 1 0 24 24 24.027 24.027 0 0 0 -24-24zm0 32a8 8 0 1 1 8-8 8.009 8.009 0 0 1 -8 8z"/><path d="m322.107 489.1c-44.389 15.007-94.309 4.8-128.7-25.929l6.177-16.049c21.362-5.129 30.881-31.415 18.907-49.1l21.13-54.88c34.545 10.672 55.1-44.636 23.044-59.857l17.335-45.021 23.534 61.12c3.805 9.883 18.734 4.124 14.932-5.749l-26.813-69.635h38.855l9.013 23.412c-24.082 20.134-7.345 65.253 29.025 55.424a8 8 0 1 0 -4.172-15.446c-21.163 5.716-26.535-22.154-11.487-29.721a8 8 0 0 0 3.871-10.022l-13.292-34.522a8 8 0 0 0 -7.466-5.125c-57.49.031-60.77-1.879-63.466 5.125-27.588 74.571-30.723 73.3-27.336 79.21a8 8 0 0 0 5.643 3.919c17.306 2.847 13.042 23.512 3.758 30.056-4.387 3.093-9.458 2.842-15.074-.743a8 8 0 0 0 -11.771 3.869l-25.85 67.14a8 8 0 0 0 1.726 8.447c8.594 8.851 2.81 26.125-10.335 26.922a8 8 0 0 0 -6.982 5.112l-9.779 25.409a8 8 0 0 0 1.889 8.609c39.9 38.8 97.94 50.382 148.809 33.184a8 8 0 1 0 -5.125-15.157z"/><path d="m504 320c-7.485 0-155.017 0-176 0a8 8 0 0 0 0 16h8.7l15.338 168.724a8 8 0 0 0 7.962 7.276h112a8 8 0 0 0 7.967-7.276l5.82-64.07a8 8 0 1 0 -15.933-1.447l-5.161 56.793h-97.387l-14.546-160h126.481l-3.588 39.486a8 8 0 0 0 15.934 1.448l3.719-40.934h8.694a8 8 0 0 0 0-16z"/><path d="m280.006 191.837a8 8 0 0 0 9.442-6.233 72 72 0 0 1 27.352-43.204 7.98 7.98 0 0 0 .857-.743c10.622-10.628 12.185-30.545-8.325-47.694-3.734-3.122-5.082-8.4-4-11.376.259-.711.919-2.6 5.5-2.587 96.883 1.844 101.742-2.839 103.775 2.714 1.073 2.931-.128 8.064-3.937 11.249-10.122 8.463-15.473 17.653-15.9 27.312-.427 9.557 4.772 18.378 8.433 21.124a72.36 72.36 0 0 1 28.797 57.601 8 8 0 0 0 16 0 88.443 88.443 0 0 0 -34.539-69.9c-6.537-8.106-.484-17.213 7.471-23.864 14.48-12.106 13.633-36.326-4.932-41.373v-56.863a8 8 0 0 0 -8-8h-96a8 8 0 0 0 -8 8v56.857c-18.754 5-19.439 29.25-4.932 41.38 8.061 6.739 13.96 15.811 7.472 23.863a87.988 87.988 0 0 0 -32.768 52.3 8 8 0 0 0 6.234 9.437zm39.994-175.837h80v16h-56a8 8 0 0 0 0 16h56v16h-80z"/><path d="m88 376a8 8 0 0 0 -8-8 32.036 32.036 0 0 1 -32-32c0-12.175 17.667-39.777 32-58.924 14.333 19.139 32 46.735 32 58.924a8 8 0 0 0 16 0c0-24.2-37.483-71.67-41.757-77a8 8 0 0 0 -12.486 0c-4.274 5.33-41.757 52.8-41.757 77 0 44.108 56 59.313 56 40z"/><path d="m184 496h-24v-357.784l40.1-66.825 40.238 66.832v77.777a8 8 0 0 0 16 0v-80c0-4.072.385-.81-48.333-82.5v-45.5a8 8 0 0 0 -8-8h-144.005a8 8 0 0 0 -8 8v45.785l-6.4 10.67a8 8 0 1 0 13.72 8.23l5.21-8.685h125.341l-38.4 64h-27.471a8 8 0 0 0 0 16h24v64h-128v-64h72a8 8 0 0 0 0-16h-65.872l.272-.455a8 8 0 0 0 -13.72-8.23c-7.935 13.242-8.68 13.733-8.68 16.685v368a8 8 0 0 0 8 8h176a8 8 0 0 0 0-16zm-120-448v-32h128v32zm80 448h-128v-64h128zm0-80h-128v-192h128z"/><circle cx="32" cy="96" r="8"/><circle cx="112" cy="368" r="8"/><circle cx="440" cy="232" r="8"/><circle cx="480" cy="408" r="8"/><path d="m440 256a8 8 0 0 0 -8 8v32a8 8 0 0 0 16 0v-32a8 8 0 0 0 -8-8z"/></g></g></svg>